<svg width="36" height="37" viewBox="0 0 36 37" fill="none" xmlns="http://www.w3.org/2000/svg">
<g id="Group">
<g id="Group_2">
<g id="Group_3">
<path id="Vector" d="M22.2358 16.6568L22.2358 26.172C22.2358 27.6052 21.074 28.7671 19.6408 28.7671C18.2076 28.7671 17.0457 27.6052 17.0457 26.172L17.0457 16.6568" stroke="white" stroke-width="2.69006" stroke-linecap="round" stroke-linejoin="round"/>
<path id="Vector_2" d="M1.47534 17.5218L1.47534 11.8992C1.47534 6.40523 5.9291 1.95147 11.4231 1.95147L12.2881 1.95147C17.7821 1.95147 22.2358 6.40523 22.2358 11.8992L22.2358 17.5218" stroke="white" stroke-width="2.69006" stroke-linecap="round" stroke-linejoin="round"/>
<path id="Vector_3" d="M17.0459 14.0618L17.0459 15.7003L17.0459 18.3869C17.0459 19.8201 15.884 20.9819 14.4508 20.9819C13.0176 20.9819 11.8558 19.8201 11.8558 18.3869L11.8558 15.6345L11.8558 14.0618" stroke="white" stroke-width="2.69006" stroke-linecap="round" stroke-linejoin="round"/>
<path id="Vector_4" d="M11.8555 14.0618L11.8555 15.7003L11.8555 18.3869C11.8555 19.8201 10.6936 20.9819 9.26041 20.9819C7.82719 20.9819 6.66534 19.8201 6.66534 18.3869L6.66534 15.6345L6.66534 14.0618" stroke="white" stroke-width="2.69006" stroke-linecap="round" stroke-linejoin="round"/>
<path id="Vector_5" d="M6.66553 14.0618L6.66553 15.7003L6.66553 18.3869C6.66553 19.8201 5.50368 20.9819 4.07046 20.9819C2.63725 20.9819 1.4754 19.8201 1.4754 18.3869L1.4754 15.6345L1.4754 14.0618" stroke="white" stroke-width="2.69006" stroke-linecap="round" stroke-linejoin="round"/>
</g>
<path id="Vector_6" d="M10.9906 26.172C10.9906 27.0812 11.1309 27.9577 11.391 28.7809C11.6819 29.7017 12.1227 30.5558 12.6847 31.3148C14.2606 33.4427 16.7896 34.8222 19.6408 34.8222C22.492 34.8222 25.0211 33.4427 26.5969 31.3148C27.1589 30.5558 27.5997 29.7017 27.8906 28.7809C28.1507 27.9577 28.291 27.0812 28.291 26.172" stroke="white" stroke-width="2.69006" stroke-linecap="round"/>
</g>
<circle id="Ellipse 1" cx="30.9026" cy="15.5601" r="4.48344" fill="white"/>
</g>
</svg>
